<?xml version="1.0" encoding="utf-8"?>
<!-- Generator: Adobe Illustrator 22.0.1, SVG Export Plug-In . SVG Version: 6.00 Build 0)  -->
<svg version="1.1" id="Layer_1" xmlns="http://www.w3.org/2000/svg" xmlns:xlink="http://www.w3.org/1999/xlink" x="0px" y="0px"
	 viewBox="0 0 100 100" style="enable-background:new 0 0 100 100;" xml:space="preserve">
<g>
	<g>
		<path d="M19.2,9c0.2,12.8-0.5,25.7-1.9,38.4c0,0.2,0.2,0.5,0.4,0.5c3.3,0.5,6.4,0.2,9.7-0.3c4.3-0.6,8.4-0.7,12.7-0.5
			c2.3,0.1,6.7,1,8.6-0.8c1.8-1.6,1.7-5.7,1.7-7.9c0-0.2-0.2-0.4-0.4-0.5c-5.4-1.3-11.2-0.8-16.5-2.8c-2.1-0.8-3.2-1.5-3.3-3.9
			c0-0.8,0.1-1.6,0.2-2.4c0.1-1.2,0.3-2.1,1.9-2c2.4,0.1,4.1,2.5,6.8,2.1c1.6-0.2,2.7-1.2,3.2-2.7c0.5-1.3,0.8-3.6,0.3-4.9
			c-0.8-1.7-3.3-1.2-4.8-1.3c-1.6-0.1-3.5,0.1-5.1-0.2c-2.4-0.4-3.1-2-3.7-4.2c-0.1,0.2-0.2,0.4-0.3,0.6c6.6-2,13.4-2.6,20.3-1.9
			c0.3,0,0.5-0.3,0.5-0.5c0.4-3,0.6-6.1,0.7-9.2c0-0.2-0.2-0.4-0.4-0.5C45,3.1,40.2,3.5,35.5,4.4c-5.3,1-10.6,2.2-15.9,3.5
			C19,8,19.3,9,19.9,8.8c4.7-1.1,9.3-2.2,14.1-3.1c2.5-0.5,14.3-3.1,15,0.5c0.2,1-0.1,2.2-0.2,3.2c0,0.7,0.1,3.2-0.4,3.7
			c-0.7,0.7-2.5,0.2-3.4,0.1c-1.1,0-2.2,0-3.3,0c-4.6,0.1-9.1,0.9-13.5,2.2c-0.3,0.1-0.4,0.3-0.3,0.6c0.7,2.9,1.8,4.7,5,4.9
			c1.3,0.1,2.5,0.1,3.8,0.1c1,0,2.8-0.2,3.8,0.1c1.2,0.5,1.2,1.6,1.1,2.6c-0.1,2.5-1.3,4.2-4.1,4c-1.8-0.2-6.2-3.9-7.8-1.5
			c-0.7,1.1-0.4,3.2-0.5,4.4c-0.1,1.4-0.3,2.5,0.6,3.5c2.4,2.5,7.2,2.9,10.4,3.3c2.2,0.3,4.5,0.4,6.7,0.8c1.2,0.2,2.2,0.1,2.4,1.4
			c0.2,1.2-0.1,3.6-0.7,4.6c-1.7,2.6-5.9,1.9-8.6,1.7c-2.7-0.1-5.4-0.3-8.1,0c-2.4,0.2-4.7,0.6-7.1,0.9c-1.1,0.1-2.2,0.2-3.3,0.2
			c-0.4,0-1.4,0.1-1.9,0c-1.7-0.5-1.2-1.3-1.1-2.7c1.2-11.8,1.7-23.6,1.6-35.5C20.2,8.4,19.2,8.4,19.2,9L19.2,9z"/>
	</g>
</g>
<g>
	<g>
		<path d="M55.6,4.7c1,7.2-0.9,14.2-1.8,21.3c-0.4,3.2-0.6,6.3-0.3,9.5c0.4,3.7,1.3,7.2,1.7,10.9c0,0.2,0.2,0.5,0.5,0.5
			c3.5-0.4,7-0.8,10.5-1.3c0.3,0,0.4-0.4,0.3-0.6c-1-4.5-1.8-9-2.3-13.6c-0.2,0.2-0.4,0.3-0.6,0.5c3.3,0.6,5.8,3.1,7.9,5.6
			c1.1,1.3,2,2.6,2.9,4c0.6,1,1.1,2.3,1.9,3.1c1.4,1.2,4.5,0.3,6.2,0.2c1.3-0.1,3.4,0.3,3.8-1.2c0.4-2-0.9-5-1.6-6.8
			c-1-2.4-2.5-4.7-4.1-6.7c-2.1-2.6-4.5-4.9-6.9-7.1c-1.5-1.3-3.1-3.4-5.4-3.2c0.1,0.3,0.2,0.6,0.4,0.9c3-2.5,6-5.1,9.4-7.1
			c2.4-1.4,4.7-2.7,6.3-5.1c0.2-0.3,0-0.6-0.3-0.7c-1.9-0.7-4.1-2.1-6.1-2.4c-1.7-0.2-2.9,0.8-4.3,1.7c-3.5,2.3-6.7,5-9.6,8.1
			c0.3,0,0.5,0.1,0.8,0.1c-1.4-2.7-0.7-5.6-0.9-8.5c-0.1-1.3-0.3-2.5-1.6-3.2c-1.2-0.6-7.4-1.9-6.7,1c0.2,0.6,1.1,0.4,1-0.3
			c-0.1-0.5,2.9-0.3,3.1-0.3c1,0.1,1.5,0.2,2.3,0.9c1.3,1.2,0.9,3.1,0.9,4.7c-0.1,2.2,0,4.1,1,6.1c0.1,0.3,0.6,0.3,0.8,0.1
			c2.4-2.6,5-5,8-7c1.8-1.3,3.5-2.7,5.8-2.2c1.7,0.3,3.6,1.4,5.2,2.1c-0.1-0.2-0.2-0.5-0.3-0.7c-1.9,2.9-5.3,4.2-8.1,6.1
			c-2.6,1.8-5,3.8-7.4,5.8c-0.3,0.3-0.1,0.9,0.4,0.9c2.3-0.2,5.1,3.2,6.6,4.7c1.7,1.6,3.4,3.4,4.9,5.2c1.7,2.2,3.2,4.5,4.2,7.1
			c0.4,1,0.9,2.2,1,3.2c0.1,1.8-0.3,2.6-2,2.7c-1,0.1-2.1,0.1-3.1,0.2c-1.8,0.1-2.6,0-3.7-1.5c-1.2-1.6-2.1-3.4-3.4-5
			c-2.3-2.9-5.1-5.8-8.8-6.5c-0.3,0-0.7,0.1-0.6,0.5c0.5,4.7,1.3,9.3,2.3,13.8c0.1-0.2,0.2-0.4,0.3-0.6c-2.4,0.4-4.9,0.7-7.4,1
			c-1,0.1-1.8,0.5-2.4-0.3c-0.4-0.4-0.3-2.3-0.4-2.8c-0.8-4.6-1.6-9-1.2-13.7c0.7-8.2,3.3-16.1,2.1-24.3C56.4,3.8,55.5,4,55.6,4.7
			L55.6,4.7z"/>
	</g>
</g>
<g>
	<g>
		<path d="M16.8,95.5c2.5,0.1,5,0,7.5-0.1c0.3,0,0.5-0.2,0.5-0.5c0-1.5,0-3,0-4.4c0-1.6-0.4-3,1.5-3.6c1.9-0.6,4.7-0.1,5.4,1.9
			c0.5,1.3,0.4,2.9,0.9,4.3c1.2,3.6,6.7,2.5,9.5,2c1.5-0.3,2.9-0.4,3.5-1.8c0.4-0.9,0.2-2.3,0.3-3.2c0.2-1.8,0.3-3.6,0.5-5.5
			c0.5-5.8,1.1-11.7,1.5-17.5c0.3-3.8,0.8-8.6-1.9-11.8c-2.8-3.3-8.3-2.7-12.1-2.9c-2.9-0.1-5.7-0.1-8.6-0.1c-2,0-5.3-0.6-7,0.4
			c-1.3,0.7-1.3,2.6-1.5,4c-0.4,2.8-0.4,5.7-0.3,8.5c0.2,6.5,1,13.1-0.2,19.6c-0.6,3.1-3.9,9,0.6,10.6c0.6,0.2,0.9-0.8,0.3-1
			c-3.4-1.2-0.6-6.4-0.1-8.5c0.5-2.1,0.7-4.2,0.8-6.3c0.2-4.8-0.2-9.6-0.4-14.4c-0.1-2.4-0.1-4.8,0.2-7.2c0.1-1.4,0.1-3,1.2-4
			c1.1-1,3-0.7,4.5-0.7c5.1-0.1,10.2,0,15.2,0.3c2.7,0.2,5.6,0.5,7.2,3.1c1.2,2,1.3,4.5,1.3,6.8c-0.1,5.1-0.7,10.1-1.2,15.1
			c-0.2,2.5-0.4,5-0.6,7.5c-0.1,1.3-0.2,2.7-0.3,4c0,0.5,0,1-0.1,1.5c-0.6,2.4-1.2,2.3-3,2.6c-2.6,0.4-7.8,1.1-8.5-2.3
			c-0.3-1.5-0.4-3.8-1.4-5.1c-1.1-1.4-3.2-1-4.7-0.9c-1,0.1-2.6,0-3.2,1c-0.8,1.4-0.3,4.3-0.3,5.9c0,1.9-0.5,1.8-2.3,1.8
			c-1.6,0-3.1,0-4.7,0C16.2,94.5,16.2,95.5,16.8,95.5L16.8,95.5z"/>
	</g>
</g>
<g>
	<g>
		<path d="M28.3,73.5c1.4,0,2.8,0,4.2,0c0.5,0,1.5,0.2,2-0.1c0.9-0.6,0.8-2.7,0.9-3.6c0.3-2.3,0.7-5.3,0.2-7.5
			c-0.2-1.1-0.7-1.3-1.8-1.5c-3.1-0.6-6.4-1-7.4,2.6c-0.8,3.1-1.5,8.1,1,10.5c0.5,0.5,1.2-0.3,0.7-0.7c-2-2-1.4-6-1-8.5
			c0.4-2,1.8-3.2,3.9-3.3c0.9-0.1,2.5,0,3.2,0.7c1.2,1.1,0.4,5.2,0.3,6.8c-0.1,0.9-0.2,1.7-0.3,2.6c-0.5,0.9-1.2,1.3-2.2,1.1
			c-1.1,0.2-2.5,0-3.7,0C27.7,72.5,27.7,73.5,28.3,73.5L28.3,73.5z"/>
	</g>
</g>
<g>
	<g>
		<path d="M52.9,55.5c0,2.3-0.1,4.6-0.1,6.8c0,1.1-0.5,3.2,0.2,4.2c0.4,0.6,0.9,0.7,1.6,0.8c1.9,0.3,4.3-0.3,6.3-0.4
			c0.3,0,2.5-0.4,2.8-0.2c0.7,0.5,0.2,2,0.1,2.8c-0.2,2.1-0.5,4.1-0.7,6.2c-0.6,4.7-1.4,9.4-2.2,14.1c-0.1,0.3,0.1,0.6,0.5,0.6
			c4.7,0.1,9.4-0.3,14-1.4c0.3-0.1,0.4-0.4,0.3-0.6c-1.3-4.3-2.3-8.6-3-13.1c-0.2-1.5-0.4-3.1-0.6-4.6c-0.1-0.6-0.5-2.3-0.3-2.9
			c0.6-1.8,4.7-1.8,6.3-1.8c2.5,0,6,1.3,8.2-0.6c2.1-1.8,1.5-5.6,1.5-8c0.1-2,0.8-4.7-1.9-5c-2.1-0.3-4.3,0.1-6.4,0.1
			c-2.3,0.1-4.5,0.1-6.8,0.2c-4.5,0.1-9.1,0.3-13.6,0.6c-1.8,0.1-5.6-0.6-6.3,1.7c-0.2,0.6,0.8,0.9,1,0.3c0.5-1.5,7-1,8.3-1.1
			c2.3-0.1,4.5-0.2,6.8-0.3c5-0.2,10.1-0.3,15.1-0.4c0.5,0,1,0,1.5,0c1.3,0.3,1.8,1,1.5,2.1c0.2,1.1-0.1,2.7-0.1,3.8
			c-0.1,3-0.1,6.1-4,6.1c-1.9,0-3.8-0.4-5.7-0.4c-2.1,0.1-4.2,0.6-6.1,1.3c-0.2,0.1-0.4,0.3-0.4,0.5c0.5,7.4,1.9,14.7,4,21.8
			c0.1-0.2,0.2-0.4,0.3-0.6c-4.5,1.1-9.1,1.5-13.8,1.4c0.2,0.2,0.3,0.4,0.5,0.6c1.5-7.9,2.5-15.9,3.3-23.9c0-0.3-0.2-0.5-0.5-0.5
			c-1.6,0.1-3.1,0.2-4.7,0.3c-1.6,0.1-4.1,0.8-5.4-0.2c-1-0.8-0.7-1.2-0.7-2.5c0-0.8,0-1.6,0-2.4c0-1.8,0.1-3.6,0.1-5.4
			C53.9,54.9,52.9,54.9,52.9,55.5L52.9,55.5z"/>
	</g>
</g>
<g>
	<g>
		<path d="M38.5,7c0.1,1,1.5,1.3,1.8,0.3c0.3-1-0.8-1.9-1.8-1.5c-0.9,0.3-0.7,1.6,0.2,1.9c1,0.2,1.6-1,1-1.8c-0.4-0.5-1.3,0-0.9,0.5
			c0.1,0.1,0,0.2,0,0.3c0,0,0.1,0,0-0.1c0.1,0.1,0.2,0.1,0.3,0.2c0,0,0.2,0.2,0.2,0.3C39.4,6.4,38.4,6.4,38.5,7L38.5,7z"/>
	</g>
</g>
<g>
	<g>
		<path d="M44.2,5.8c-0.2,0-0.5,0-0.7,0c-0.3,0-0.6,0.3-0.5,0.6c0.2,1,1.2,1.5,2.1,1.3c0.2,0,0.4-0.3,0.4-0.5c0-0.6-0.1-1.4-0.7-1.7
			c-0.5-0.3-1.1-0.3-1.6,0c-1,0.8,0.1,2.5,1.1,1.8c0.5-0.3,0-1.2-0.5-0.9c0,0-0.1,0-0.1-0.1c0.1-0.1,0.2-0.1,0.3,0
			c0.4,0.1,0.4,0.6,0.4,1c0.1-0.2,0.2-0.3,0.4-0.5c-0.4,0.1-0.8-0.2-0.9-0.6c-0.2,0.2-0.3,0.4-0.5,0.6c0.2,0,0.5,0,0.7,0
			C44.8,6.8,44.8,5.8,44.2,5.8L44.2,5.8z"/>
	</g>
</g>
<g>
	<g>
		<path d="M58,21.6c0.7,0.3,1.6-0.3,1.5-1.1c-0.1-0.7-1-1.2-1.6-0.8c-0.6,0.4-0.7,1.5,0.1,1.7c0.8,0.2,1.4-0.8,0.8-1.3
			c-0.5-0.4-1.2,0.3-0.7,0.7c0.1-0.1,0.2-0.2,0.3-0.2c0,0,0.1,0,0.1,0.1c-0.2,0,0,0.1-0.2,0C57.7,20.4,57.4,21.4,58,21.6L58,21.6z"
			/>
	</g>
</g>
<g>
	<g>
		<path d="M57.6,24.3c0,0.8,1.1,1.4,1.7,0.7c0.6-0.7-0.2-1.8-1.1-1.5c-0.6,0.2-0.3,1.2,0.3,1c0.1,0,0.1-0.2,0.1-0.1
			C58.6,23.7,57.6,23.7,57.6,24.3L57.6,24.3z"/>
	</g>
</g>
<g>
	<g>
		<path d="M28.2,57.2c0.5,0.3,1.1,0.1,1.4-0.4c0.3-0.5-0.1-1.1-0.6-1.3c-1.4-0.4-1.7,1.7-0.4,1.9c0.6,0.1,0.9-0.8,0.3-1
			c0,0-0.2-0.1-0.2,0c0.1,0,0.1-0.1,0-0.1C28.1,56,27.6,56.8,28.2,57.2L28.2,57.2z"/>
	</g>
</g>
<g>
	<g>
		<path d="M35.3,55.7c-0.5-0.4-1.2-0.3-1.5,0.3c-0.3,0.6,0.1,1.3,0.8,1.3c0.6,0,1.2-0.5,1.1-1.1c-0.1-0.7-0.8-1.1-1.5-0.8
			c-0.6,0.2-0.3,1.2,0.3,1c0.1,0,0.2,0,0.2,0c-0.1-0.1,0,0.1,0,0.1c0,0,0.1,0.2,0,0C35.1,56.8,35.8,56.1,35.3,55.7L35.3,55.7z"/>
	</g>
</g>
<g>
	<g>
		<path d="M56.6,58.2c-0.4,0.2-0.5,0.7-0.3,1.1c0.1,0.2,0.4,0.3,0.6,0.2c0.5-0.2,0.9-0.8,0.5-1.3c-0.3-0.4-1-0.4-1.3,0
			c-0.4,0.5,0.3,1.2,0.7,0.7c0-0.1-0.1-0.2-0.1-0.3c0.2,0.1,0.4,0.2,0.6,0.2c0,0.1-0.1,0.2-0.1,0.3C57.6,58.8,57.1,57.9,56.6,58.2
			L56.6,58.2z"/>
	</g>
</g>
<g>
	<g>
		<path d="M58.5,57c1.1,0.1,1.7-1.3,0.7-1.9c-0.9-0.5-1.7,0.7-1,1.4c0.5,0.5,1.2-0.3,0.7-0.7c-0.1,0.2-0.2,0.2-0.4,0.2
			C57.8,56,57.8,57,58.5,57L58.5,57z"/>
	</g>
</g>
<g>
	<g>
		<path d="M57.5,62.6c2.7-0.7,4.9-2.5,6.1-5c0.3-0.6-0.6-1.1-0.9-0.5c-1.1,2.3-3.1,3.9-5.5,4.5C56.6,61.8,56.9,62.7,57.5,62.6
			L57.5,62.6z"/>
	</g>
</g>
<g>
	<g>
		<path d="M35.8,10.4C39.5,10,43.2,12,46.6,10c0.6-0.3,0.1-1.2-0.5-0.9C42.9,11,39.2,9,35.8,9.4C35.2,9.5,35.2,10.5,35.8,10.4
			L35.8,10.4z"/>
	</g>
</g>
<g>
	<g>
		<path d="M61.4,17.5c0.5,1.5,0.9,3,1.2,4.6c0.3,1.6,0.8,4.5-0.1,5.9c-0.4,0.5,0.5,1,0.9,0.5c0.9-1.4,0.6-3.4,0.5-5
			c-0.2-2.1-0.7-4.2-1.4-6.2C62.1,16.6,61.2,16.8,61.4,17.5L61.4,17.5z"/>
	</g>
</g>
</svg>
