<svg id="Layer_1" data-name="Layer 1" xmlns="http://www.w3.org/2000/svg" viewBox="0 0 97.07 83.42"><title>angel</title><path d="M45,11.91c-8.48,1.58-18.47,3.52-25.44,9-4.65,3.68-2.6,8.51,2.91,9.22,9,1.15,19-3.71,26.33-8.45,5.55-3.59,2.16-9.06-3.39-9.83-1.26-.17-1.8,1.75-.53,1.93q4.62-.15,2.4,6.48c-1,.59-2.1,1.17-3.16,1.74a75.14,75.14,0,0,1-7.94,3.81,36.71,36.71,0,0,1-6.81,2,25.3,25.3,0,0,1-5,.43q-3.54.91-3.48-2.72-2.2-2.68.85-3.7,1.43-.9,2.94-1.68A49.61,49.61,0,0,1,32.28,17a100.75,100.75,0,0,1,13.26-3.19c1.27-.23.73-2.16-.53-1.93Z" transform="translate(-0.95 -11.86)"/><path d="M28.69,54.32a59.42,59.42,0,0,0-17.42-6.87c-4.23-.9-6.4-1-8.46,3.12C1.72,52.72-.59,57.5,2.47,59c3.45,1.67,9.92-2.86,12.63-4.48l-1.37-1.37c-3.41,5.43-7.26,10.71-8.76,17a1,1,0,0,0,.7,1.23c4.59,1.75,11.1-4.81,14.39-7.39l-1.57-1.21C16.67,65.46,9.14,77,17.15,76.39c8.51-.65,10.27-14.48,10.76-20.76.09-1.29-1.91-1.28-2,0-.38,4.85-1.3,10.71-3.95,15q-1,3.24-3.84,1.91c-2.24.43-2.79-.17-1.64-1.82.2-2.15,2.53-5.12,3.74-6.9.7-1-.75-1.86-1.57-1.21-2.19,1.71-9.21,8.11-12.45,6.87l.7,1.23c1.45-6.12,5.26-11.29,8.56-16.55a1,1,0,0,0-1.37-1.37C12,54,8.73,56.52,6.21,56.64c-3.31.15-3.06-3-1.68-5.06,1.52-2.25,3.18-2.57,6.21-2.2,5.87.71,11.91,3.75,16.94,6.66a1,1,0,0,0,1-1.72Z" transform="translate(-0.95 -11.86)"/><path d="M37.89,55.44A122.74,122.74,0,0,1,30.65,82C29,86.38,27.76,92.9,33.59,94.69c3.86,1.18,9.06.24,13,0,5.08-.24,10.14-.67,15.17-1.34s13-.82,13.59-7.29c.26-2.71-1-5.15-2.43-7.37-2.48-4-5.13-7.86-7.49-11.94a37.89,37.89,0,0,1-3.07-5.54c-1.51-4.18,0-5.53,2.51-7.73a17.35,17.35,0,0,0,4.94-8c1.82-5.51,2.48-11.26-2.64-15.14s-13.37-4-19.46-2.74c-7,1.46-13.44,6-16.23,12.72-3,7.25-.31,12.13,6.33,15.5,1.14.58,2.15-1.14,1-1.73C34,51.7,31.08,48.92,32.69,43a18.47,18.47,0,0,1,7.83-10.36c6.11-4,15.16-4.87,22-2.43,11.21,4,6.07,17.41-.55,23-4.05,3.43-2.89,6.23-.49,10.63Q64.3,69,67.44,74c1.7,2.71,4.93,6.16,5.61,9.36,1.68,7.94-8.92,7.76-13.17,8.28s-8.22.83-12.34,1c-3.95.21-14.33,1.87-16.22-2.87C30,86.46,33,81.6,34.17,78.49A113.58,113.58,0,0,0,39.82,56c.19-1.26-1.74-1.81-1.93-.53Z" transform="translate(-0.95 -11.86)"/><path d="M41.71,37c-.45,2.48-.82,5-.05,7.43.38,1.22,2.31.7,1.93-.53a13.08,13.08,0,0,1,0-6.37c.23-1.26-1.7-1.8-1.93-.53Z" transform="translate(-0.95 -11.86)"/><path d="M46.32,36.73a24,24,0,0,0,.36,7.33c.26,1.26,2.18.73,1.93-.53a22.47,22.47,0,0,1-.29-6.8c.14-1.28-1.86-1.27-2,0Z" transform="translate(-0.95 -11.86)"/><path d="M71.26,54.87C76.21,52,82.38,48.76,88.2,48.21c2.06-.2,4.36.1,5.77,1.42s2.39,5.35-.45,6.06c-2.24.57-6.76-3-8.67-4.1A1,1,0,0,0,83.49,53c3.29,5.26,7.1,10.43,8.55,16.55l.7-1.23c-3.24,1.24-10.26-5.16-12.45-6.88-.81-.63-2.27.19-1.57,1.21,1.28,1.89,3.4,4.64,3.74,6.9L83,71.05q-4.41,2.49-6-1.62c-2.63-4.36-3.56-10-3.94-15-.1-1.27-2.1-1.28-2,0,.48,6.31,2.24,20.12,10.75,20.77,8,.62.43-11-1.34-13.62l-1.57,1.22c3.35,2.63,9.78,9.15,14.39,7.39A1,1,0,0,0,94,69c-1.5-6.31-5.36-11.61-8.76-17l-1.37,1.37c2.69,1.61,9.07,6.08,12.51,4.53,3.24-1.46.94-6.18-.22-8.45-1.87-3.69-3.67-4.07-7.6-3.31a59.25,59.25,0,0,0-18.28,7,1,1,0,0,0,1,1.73Z" transform="translate(-0.95 -11.86)"/><path d="M44.62,52.81c4.67.23,9.73.13,12.91-3.83.8-1-.61-2.41-1.42-1.41-2.84,3.54-7.33,3.45-11.49,3.24-1.29-.07-1.28,1.93,0,2Z" transform="translate(-0.95 -11.86)"/></svg>