<?xml version="1.0" encoding="utf-8"?>
<!-- Generator: Adobe Illustrator 22.0.1, SVG Export Plug-In . SVG Version: 6.00 Build 0)  -->
<svg version="1.1" id="Layer_1" xmlns="http://www.w3.org/2000/svg" xmlns:xlink="http://www.w3.org/1999/xlink" x="0px" y="0px"
	 viewBox="0 0 100 100" style="enable-background:new 0 0 100 100;" xml:space="preserve">
<g>
	<g>
		<path d="M77.2,88.8c2.8-5.4-0.6-10.2-3.5-14.8c-2.2-3.4-4.3-7-6.3-10.5c-2.7-4.8-6.7-10.6-1.5-15c7.5-6.3,12.1-21.6,2.1-27.7
			c-10-6.2-26.2-3.3-34.1,5.1c-3.4,3.6-6.1,8.7-6,13.8c0,5.6,3.9,8.5,8.5,10.8c1.1,0.6,2.2-1.1,1-1.7c-2.2-1.1-4.6-2.3-6-4.3
			c-2.1-3-1.6-7-0.4-10.3c1.9-5.2,6.2-9.5,11.2-11.9c5.6-2.7,12.4-3.2,18.5-2c3.4,0.6,7.1,2,9.1,5c2.5,3.7,1.8,7.9,0.6,12
			c-0.8,2.7-1.8,5.6-3.7,7.8c-1.4,1.6-3.3,2.6-4.7,4.2c-1.8,2-2,4.1-1.1,6.6c1.7,4.8,4.9,9.4,7.5,13.7c2.9,4.9,10.1,12.4,7,18.4
			C74.9,89,76.7,90,77.2,88.8L77.2,88.8z"/>
	</g>
</g>
<g>
	<g>
		<path d="M36.6,50.2c-1.3,9-3.4,17.8-6.5,26.3c-1.7,4.8-5.7,10.6-1.7,15.2c0.9,1,2.3-0.5,1.4-1.4c-2.8-3.1,0-7.7,1.2-10.7
			c1.2-3.1,2.3-6.2,3.2-9.4c1.9-6.4,3.3-12.9,4.2-19.4C38.7,49.5,36.8,49,36.6,50.2L36.6,50.2z"/>
	</g>
</g>
<g>
	<g>
		<path d="M56,29.6c0.4,2.5,0.8,4.9,0.1,7.4c-0.4,1.2,1.6,1.8,1.9,0.5c0.9-2.8,0.4-5.6-0.1-8.4C57.7,27.8,55.8,28.3,56,29.6L56,29.6
			z"/>
	</g>
</g>
<g>
	<g>
		<path d="M50.8,28.7c0.3,2.6,0.2,5.2-0.3,7.8c-0.2,1.3,1.7,1.8,1.9,0.5c0.5-2.8,0.7-5.6,0.4-8.4C52.7,27.5,50.7,27.4,50.8,28.7
			L50.8,28.7z"/>
	</g>
</g>
<g>
	<g>
		<path d="M45.6,42.9c4.8,2.4,10,4.5,15.1,1.7c1.1-0.6,0.1-2.3-1-1.7c-4.4,2.4-9,0.3-13.1-1.7C45.4,40.6,44.4,42.3,45.6,42.9
			L45.6,42.9z"/>
	</g>
</g>
<g>
	<g>
		<path d="M33.9,26.7c-3-2.9-4.8-6.7-5.4-10.8c-0.6,0.2-1.1,0.5-1.7,0.7c3,2.8,6,5.6,9,8.3c0.9,0.9,2.4-0.5,1.4-1.4
			c-3-2.8-6-5.6-9-8.3c-0.6-0.5-1.8-0.2-1.7,0.7c0.6,4.7,2.6,8.9,5.9,12.2C33.4,29.1,34.8,27.6,33.9,26.7L33.9,26.7z"/>
	</g>
</g>
<g>
	<g>
		<path d="M68.4,21.9c3.9-2,7.6-4.4,11.1-7.1c-0.5-0.4-1-0.8-1.5-1.1c-1,4.2-3.2,7.9-6.4,10.8c-1,0.9,0.5,2.3,1.4,1.4
			c3.5-3.1,5.8-7.1,6.9-11.7c0.2-0.8-0.7-1.7-1.5-1.1c-3.5,2.7-7.2,5-11.1,7.1C66.2,20.8,67.3,22.5,68.4,21.9L68.4,21.9z"/>
	</g>
</g>
<g>
	<g>
		<path d="M69.8,55.7c8.4-5.9,16.7-11.9,24.8-18.2c-0.6-0.1-1.1-0.3-1.7-0.4c1.4,4.3,2.4,8.6,3.1,13c0.5-0.4,1-0.8,1.5-1.1
			c-2.1-0.9-4.2-1.9-6.2-3c-0.8-0.5-1.6,0.3-1.5,1.1c0.5,3.7,1,7.4,1.5,11.1c0.4-0.4,0.8-0.8,1.2-1.2c-3.3-1-6-2.4-8.7-4.5
			c-0.6-0.5-1.8-0.2-1.7,0.7c0.3,4.4,0.2,8.7-0.5,13.1c0.6-0.1,1.1-0.3,1.7-0.4c-4.4-3.7-8.8-7.4-13.2-11.2c-1-0.8-2.4,0.6-1.4,1.4
			c4.4,3.7,8.8,7.4,13.2,11.2c0.5,0.4,1.5,0.4,1.7-0.4c0.7-4.5,0.9-9,0.6-13.6c-0.6,0.2-1.1,0.5-1.7,0.7c2.9,2.4,6,4,9.5,5.1
			c0.8,0.2,1.3-0.5,1.2-1.2c-0.5-3.7-1-7.4-1.5-11.1c-0.5,0.4-1,0.8-1.5,1.1c2,1.1,4.1,2.1,6.2,3c0.8,0.4,1.6-0.2,1.5-1.1
			c-0.7-4.4-1.8-8.7-3.1-13c-0.2-0.8-1.1-0.9-1.7-0.4c-8,6.2-16.1,12.2-24.4,17.9C67.8,54.7,68.8,56.4,69.8,55.7L69.8,55.7z"/>
	</g>
</g>
<g>
	<g>
		<path d="M28.4,51.3c-8.1-3.7-16.2-7.6-24.1-11.8c-0.6-0.3-1.6,0.1-1.5,0.9c0.4,4.6-0.2,8.8-1.8,13.2c-0.4,1.1,1,1.5,1.7,1
			c2.1-1.6,4.1-3.2,6.2-4.8c-0.6-0.3-1.1-0.6-1.7-1c-0.7,4.2-1.4,8.3-2.1,12.5c-0.1,0.8,0.7,1.7,1.5,1.1c3.5-2.4,6.7-5,9.9-7.8
			c-0.6-0.2-1.1-0.5-1.7-0.7c-0.2,3.5-0.2,6.9-0.1,10.3c0,0.8,0.8,1.2,1.5,0.9c5.1-2.9,9.1-6.7,12.2-11.6c0.7-1.1-1-2.1-1.7-1
			c-3,4.6-6.7,8.2-11.5,10.9c0.5,0.3,1,0.6,1.5,0.9c-0.1-3.5-0.1-6.9,0.1-10.3c0-0.9-1.1-1.3-1.7-0.7c-3,2.7-6.1,5.2-9.5,7.5
			C6,61,6.5,61.4,7,61.8c0.7-4.2,1.4-8.3,2.1-12.5c0.2-1-0.9-1.6-1.7-1c-2.1,1.6-4.1,3.2-6.2,4.8c0.6,0.3,1.1,0.6,1.7,1
			c1.7-4.5,2.3-8.9,1.9-13.7c-0.5,0.3-1,0.6-1.5,0.9c7.9,4.2,15.9,8.1,24.1,11.8C28.6,53.5,29.6,51.8,28.4,51.3L28.4,51.3z"/>
	</g>
</g>
<g>
	<g>
		<path d="M29.7,91.9c3.3-1.3,6.2-3,9.3-4.5c2.3-1.1,1.7-1.3,3.6,0.1c1.2,0.9,2.3,2,3.6,2.9c0.3,0.2,1,0.2,1.2-0.2
			c0.7-0.9,2.2-3.1,3.2-3.6c3-1.4,3.9,1.3,5.9,2.4c0.7,0.4,1.1,0.8,2,0.7c1.8-0.2,2.4-3.3,3.9-3.8c2.1-0.6,3.5,2.6,5.4,3.7
			c0.3,0.2,0.7,0.2,1,0c2.9-2,3.6-3.3,7.2-1.3c1.1,0.6,2.1-1.1,1-1.7c-1.4-0.8-3.7-2.8-5.4-2.4c-1.2,0.3-1.1,1.6-2.1,2
			c-2.7,1.3-4.2-1.5-5.8-3.2c-0.4-0.4-1.1-0.4-1.4,0c-1.4,1.6-2,2.9-4.2,3.1c-2.4,0.3-2.5-1.2-4.4-2.1c-0.7-0.4-1.3-0.8-2-0.8
			c-1.1,0.1-2.4,1.7-3.1,2.4c-1.4,1.4-1.6,2-3.6,1.3C44,86.7,42.8,84.8,42,84c-0.3-0.3-0.9-0.4-1.2-0.2c-3.7,2.5-7.5,4.5-11.7,6.2
			C28,90.5,28.5,92.4,29.7,91.9L29.7,91.9z"/>
	</g>
</g>
<g>
	<g>
		<path d="M76.4,84c0.1,0.9,0.2,1.7,0.2,2.6c0,0.1,0,1.2,0,1.2c0.8-0.1-0.3-0.8-0.4-0.9c-0.9-1-2.3,0.5-1.4,1.4
			c0.8,0.9,2.9,1.7,3.6,0.3c0.4-0.7,0.2-1.6,0.2-2.3c0-0.9-0.1-1.9-0.3-2.8C78.1,82.2,76.2,82.7,76.4,84L76.4,84z"/>
	</g>
</g>
</svg>
