<svg id="Layer_1" data-name="Layer 1" xmlns="http://www.w3.org/2000/svg" viewBox="0 0 96.39 82.68"><title>icon01</title><path d="M8.2,32.75l.09,26,.05,13c0,3.59-.58,7.68.46,11.17,1,3.32,4.16,5.72,7.52,3.9,5.27-2.84,3.09-11.51,2.82-16.15l-.67-12c-.15-2.53-.46-4,.86-6.27,1.54-2.66.77-1.44,2.94-2a22.83,22.83,0,0,1,3.71-.3c7.81-.63,15.65-1.24,23.4-2.47,4.82-.76,11-1.56,12.38-7,.86-3.28,2.45-10.91-1.27-12.9-6-3.21-15.89-1.61-22.27-.74-9.33,1.27-18.5,3.42-28,3.24-1.93,0-1.93,3,0,3,15.36.3,30.67-6.22,46-3.46,3.19.57,3.19,1.65,3.23,4.79s-.76,6.87-4,8.52-7.56,1.74-11,2.19c-8,1-16.18,1-24.1,2.23-4.16.67-5.17,3.46-5.13,7.54s.43,7.94.66,11.88c.18,3.27,1.43,8,.62,11.06q1,4.28-5.17,2.23l0-1.53c-.67-1.75,0-5.08,0-7l-.05-13-.09-26a1.5,1.5,0,0,0-3,0Z" transform="translate(-3.35 -4.72)"/><path d="M28,49.18C27.42,51,27,54.64,25,55.31s-5.09.24-7.23.17c-1.93-.06-1.93,2.94,0,3,2.8.09,7,.68,9.57-.87,2.27-1.4,2.83-5.33,3.61-7.63.62-1.83-2.27-2.62-2.89-.8Z" transform="translate(-3.35 -4.72)"/><path d="M67,28.25c-.13-2.09-.37-4.83.23-6.82.27-.88,1.14-3.93,2.57-3.64,2.82.55,3,9.39,3,11.3-.1,7.23-2.31,14.21-4.45,21.06l2.51-.67a16.07,16.07,0,0,1-4.45-9.12c-.29-1.91-3.18-1.1-2.89.79A18.51,18.51,0,0,0,68.73,51.6a1.52,1.52,0,0,0,2.51-.66c3-9.72,8.23-24.3,1.84-33.82-1.3-2-3.74-4.15-6.14-2.56C63.42,16.89,63.81,24.7,64,28.25c.12,1.92,3.12,1.93,3,0Z" transform="translate(-3.35 -4.72)"/><path d="M79.41,16.72q1.08-3.61,5.51-.49L85,18.08c.47,1.59.07,3.88,0,5.57q-.09,6-.76,12.05A129.45,129.45,0,0,1,79.1,59.78l1.85-1A6.55,6.55,0,0,1,76,53.63c-.45-1.88-3.34-1.09-2.89.79a9.27,9.27,0,0,0,7,7.21A1.54,1.54,0,0,0,82,60.58a130.46,130.46,0,0,0,6-39.71c0-3.14.63-8.59-2.75-10.46-3.84-2.11-6.92,1.83-8.46,4.8-.88,1.71,1.71,3.23,2.59,1.51Z" transform="translate(-3.35 -4.72)"/><path d="M91.33,9.58c.6-.47,3-2.33,3.86-2,1,.42,1,4.2,1.07,5.27.18,2.9.15,5.81.14,8.72,0,6-.07,12-.1,17.92,0,5.44,0,10.9-.13,16.34a46,46,0,0,1-1,9.14c-.79,3.32-.55,4.07-4.46,4.2-3.49.12-3,.29-5-1.78-1.32-1.41-3.44.71-2.12,2.12,3.53,3.74,9.56,7,12.85,1.07,4.4-7.9,2.82-19.49,2.87-28.1.07-11,1.21-22.6-.36-33.49-.9-6.2-5.71-4.65-9.72-1.52-1.52,1.19.62,3.3,2.13,2.12Z" transform="translate(-3.35 -4.72)"/><path d="M21.25,49.25V52.5a1.5,1.5,0,0,0,3,0V49.25a1.5,1.5,0,0,0-3,0Z" transform="translate(-3.35 -4.72)"/><path d="M9.5,30,5.36,30a2,2,0,0,0-2,2C4,38.2,4.21,44.58,6,50.57,6.68,53,10.54,52,9.81,49.51,8.16,43.85,7.93,37.86,7.36,32l-2,2L9.5,34c2.57,0,2.58-4,0-4Z" transform="translate(-3.35 -4.72)"/><path d="M5.11,33c-.3,7.7-.37,15.23,1.54,22.75.63,2.5,4.49,1.44,3.85-1.06C8.69,47.54,8.82,40.33,9.11,33c.1-2.58-3.9-2.57-4,0Z" transform="translate(-3.35 -4.72)"/><path d="M20.13,49.54C31,43.26,46.19,42,58.41,41.44l-1.73-3c-2.78,4-9.42,3.66-13.69,4.16L28.06,44.37c-3.39.4-7.79.26-10.92,1.84s-2.41,4.25-2.66,7.52c-.19,2.57,3.81,2.56,4,0,.26-3.45.23-4.15,4-4.7,2.48-.36,5-.59,7.47-.89l14-1.66c5.88-.7,12.49-.72,16.2-6a2,2,0,0,0-1.72-3c-13,.59-28.8,2-40.3,8.64-2.23,1.29-.22,4.75,2,3.46Z" transform="translate(-3.35 -4.72)"/><path d="M16.75,57.5c2.57,0,2.58-4,0-4s-2.58,4,0,4Z" transform="translate(-3.35 -4.72)"/><path d="M16.5,56.75c2.57,0,2.58-4,0-4s-2.58,4,0,4Z" transform="translate(-3.35 -4.72)"/><path d="M91.83,9.17a13.68,13.68,0,0,0,4.64,3,2,2,0,0,0,2.46-1.4,2,2,0,0,0-1.4-2.46,8.87,8.87,0,0,1-2.87-2c-1.83-1.82-4.66,1-2.83,2.83Z" transform="translate(-3.35 -4.72)"/></svg>