<svg id="Layer_1" data-name="Layer 1" xmlns="http://www.w3.org/2000/svg" width="74.35" height="93.93" viewBox="0 0 74.35 93.93"><title>icon-01</title><path d="M6,8.67A318.23,318.23,0,0,1,4.13,47.1a1,1,0,0,0,.73,1,34.51,34.51,0,0,0,9.94-.28,68.61,68.61,0,0,1,12.57-.53c2.47.11,6.89.93,8.93-.92s1.91-5.9,1.86-8.26a1,1,0,0,0-.74-1c-5.4-1.34-11.25-.8-16.48-2.81C19.05,33.58,18.06,33,18,30.9a23.55,23.55,0,0,1,.15-2.36c.07-1.09-.08-1.69,1.25-1.53,2.49.31,4.24,2.44,7,2.12,3.5-.42,5.13-5.25,3.87-8.26-.81-1.93-3.57-1.45-5.25-1.51a37,37,0,0,1-5.06-.19c-2.18-.4-2.72-1.88-3.2-3.83L16,16.57a52.1,52.1,0,0,1,20.13-1.91c.59.06.94-.51,1-1a82.48,82.48,0,0,0,.69-9.16,1,1,0,0,0-.73-1c-4.77-1.23-9.59-.81-14.38.06C17.4,4.57,12.1,5.8,6.83,7.06c-1.25.3-.72,2.23.53,1.93C12,7.88,16.71,6.82,21.42,5.88c5-1,10.1-1.72,15.16-.42l-.74-1a82.48,82.48,0,0,1-.69,9.16l1-1a53.46,53.46,0,0,0-20.66,2,1,1,0,0,0-.7,1.23C15.27,17.8,16,20,18,20.81c2.69,1.11,6.08.17,8.9.61,1.84.29,1.76,1.21,1.48,3-.48,2.95-3,3-5.36,2-1.58-.7-4-2.3-5.76-1.21s-1.19,4.53-1.27,6.2c-.13,2.58,1.22,3.45,3.48,4.46,5.47,2.44,11.72,1.78,17.44,3.21l-.73-1a19.68,19.68,0,0,1-.39,4.53c-.44,2.11-2.11,2.71-4.11,2.75-2.86,0-5.72-.22-8.58-.26C17.17,45,11.29,47,5.39,46.14l.74,1A318.23,318.23,0,0,0,8,8.67a1,1,0,0,0-2,0Z" transform="translate(-1.53 -1.75)"/><path d="M42.4,4.46c1,7.1-.9,14.08-1.84,21.08a41.71,41.71,0,0,0-.33,9.6C40.6,38.8,41.58,42.35,42,46c.05.5.42,1.06,1,1,3.54-.35,7.07-.81,10.59-1.35a1,1,0,0,0,.7-1.23A111.2,111.2,0,0,1,52,31l-1.27,1c3.27.57,5.59,3,7.65,5.43a33.77,33.77,0,0,1,2.83,3.88c.64,1,1.11,2.38,2,3.17,1.58,1.37,4.63.45,6.51.32,1.5-.11,3.9.3,4.27-1.59.43-2.17-.84-5.21-1.67-7.16a29.45,29.45,0,0,0-4.2-6.86,61,61,0,0,0-6.94-7.07c-1.62-1.44-3.35-3.52-5.71-3.32l.71,1.71a71.42,71.42,0,0,1,9.33-7C68,12,70.38,10.65,72,8.19a1,1,0,0,0-.59-1.47c-2-.8-4.17-2-6.27-2.41C63.39,4,62,5.14,60.6,6a50.43,50.43,0,0,0-9.7,8.21l1.57.2c-1.35-2.58-.6-5.46-.8-8.23-.1-1.53-.43-2.93-1.91-3.64s-8.27-2-7.36,1.55a1,1,0,0,0,1.93-.54c.07.31,4,.5,4.63,1.08,1.1,1,.74,3.05.7,4.44a12.24,12.24,0,0,0,1.09,6.35,1,1,0,0,0,1.57.2,48.42,48.42,0,0,1,7.86-6.93c1.66-1.16,3.26-2.58,5.45-2.18,1.71.32,3.6,1.45,5.22,2.1l-.59-1.47C68.42,10,65,11.28,62.34,13.12A91.41,91.41,0,0,0,54.79,19a1,1,0,0,0,.71,1.7c2.16-.18,4.84,3.19,6.29,4.56a49,49,0,0,1,4.94,5.25,26.37,26.37,0,0,1,4.06,6.88,12.3,12.3,0,0,1,1,3.22c.14,1.6,0,1.94-1.56,2.06l-3.08.22c-1.67.12-2.23.11-3.29-1.24-1.25-1.61-2.19-3.48-3.48-5.08-2.37-2.93-5.2-5.92-9.06-6.6-.57-.09-1.34.26-1.27,1a118,118,0,0,0,2.33,14L53,43.72c-3.34.52-6.69.94-10.05,1.28l1,1c-.42-3.8-1.47-7.52-1.8-11.34a45.79,45.79,0,0,1,.66-11c1-6.59,2.45-13.08,1.49-19.78-.18-1.26-2.11-.72-1.93.54Z" transform="translate(-1.53 -1.75)"/><path d="M4.17,95.65c2.49.06,5,0,7.45-.11a1,1,0,0,0,1-1l0-4.43c0-1.3-.48-2.69,1-3.11,1.69-.47,4.2-.34,5,1.48.54,1.32.45,2.93.88,4.29,1.24,3.94,7,2.86,10.13,2.3,1.58-.27,3.29-.47,3.86-2.16a14.66,14.66,0,0,0,.34-3.37l.48-5.47c.5-5.84,1.08-11.68,1.49-17.52.28-3.93.77-8.89-2-12.13-2.92-3.41-8.47-2.89-12.49-3-2.85-.09-5.71-.13-8.56-.11-2,0-5.42-.58-7.25.47C4,52.61,4,54.61,3.81,56.16a54,54,0,0,0-.34,8.53c.16,6.46,1,13-.23,19.45-.67,3.43-4,9.48,1,11.22,1.21.42,1.74-1.51.53-1.93-2.77-1-.3-5.76.12-7.46a36.28,36.28,0,0,0,.91-6.4c.27-4.51-.12-9-.29-13.52-.08-2.25-.12-4.51,0-6.77.07-1.15.18-2.29.35-3.43.32-2.2,1-2.46,3.11-2.51q7.14-.18,14.28.13c2.34.09,5,0,7.14.91C32.91,55.47,33.74,58,34,60.51c.38,4.48-.38,9.15-.76,13.61L31.91,89c-.12,1.4-.12,3.1-1.38,3.81-1.09.63-3.22.56-4.44.6-1.49.06-3.61.09-4.63-1.21-.49-.62-.48-2.3-.64-3.11-.34-1.68-.66-3.4-2.42-4.1-1.61-.64-4.12-.26-5.77.11a2.11,2.11,0,0,0-1.91,1.77c-.52,2.31-.08,5.26-.1,7.63l1-1c-2.48.14-5,.17-7.45.11a1,1,0,0,0,0,2Z" transform="translate(-1.53 -1.75)"/><path d="M15.67,73.66h4.17A4.77,4.77,0,0,0,22,73.5c1.2-.71,1.09-2.87,1.23-4.09a26.85,26.85,0,0,0,.18-7.54c-.23-1.32-.88-1.73-2.18-2-3.4-.62-6.89-1-8,3-.9,3.25-1.49,8.44,1.14,11a1,1,0,0,0,1.41-1.42c-1.85-1.83-1.25-5.74-.84-8a3.28,3.28,0,0,1,3.4-2.94c.54,0,2.56,0,2.91.45.91,1.15.21,5,.07,6.51-.08.83-.18,1.65-.31,2.47a1.32,1.32,0,0,1-1.67.71,20.9,20.9,0,0,1-3.71,0,1,1,0,0,0,0,2Z" transform="translate(-1.53 -1.75)"/><path d="M39.71,55.45l-.12,7.87c0,1.47-.54,3.82.62,5,1,1,2.51.68,3.75.58l7.91-.65-1-1q-1.11,13.11-3.24,26.1a1,1,0,0,0,1,1.27A50.08,50.08,0,0,0,62.75,93a1,1,0,0,0,.7-1.23,121.3,121.3,0,0,1-2.88-13.73q-.54-3.57-.84-7.19c-.1-1.17-.45-1.9.72-2.49a10.48,10.48,0,0,1,4.07-.77c2.83-.13,6.31,1.3,8.89-.36,2.78-1.77,2.19-5.9,2.26-8.69,0-2.42,1.12-6.3-2.1-6.93-1.77-.35-3.87,0-5.66.06l-6.81.21q-6.81.24-13.62.6c-2.26.12-6.9-.64-7.77,2.27a1,1,0,0,0,1.93.53c.35-1.18,6.7-.85,7.79-.9q3.89-.2,7.78-.35T65,53.79c2.23-.06,5.11-.63,7.29-.18,1.71.35,1.48,1.18,1.44,2.66L73.63,60c-.07,3,.07,6.14-3.78,6.06-2.1,0-4.09-.54-6.21-.34A19.05,19.05,0,0,0,58,67.22a1,1,0,0,0-.49.86,125.25,125.25,0,0,0,4,24.26l.7-1.23a48.16,48.16,0,0,1-13.63,1.52l1,1.26q2.19-13.24,3.32-26.63a1,1,0,0,0-1-1l-5.59.46c-1.08.09-3.83.78-4.48-.06-.78-1-.19-4-.18-5.31l.09-5.9a1,1,0,0,0-2,0Z" transform="translate(-1.53 -1.75)"/><path d="M25.83,6.7A1,1,0,0,0,27.67,7a1.32,1.32,0,0,0-1.78-1.52,1,1,0,0,0,.19,1.86c1,.25,1.55-1,1-1.75-.38-.51-1.25,0-.86.51.08.11,0,.21,0,.27s.09,0,0,0c.11.09.22.07.32.16a.75.75,0,0,1,.21.26c0-.64-1-.64-1,0Z" transform="translate(-1.53 -1.75)"/><path d="M31.5,5.5l-.72,0a.5.5,0,0,0-.48.63,1.79,1.79,0,0,0,2.15,1.32A.51.51,0,0,0,32.81,7a1.89,1.89,0,0,0-.69-1.74,1.39,1.39,0,0,0-1.57,0c-1,.76.06,2.46,1.14,1.77.55-.34,0-1.21-.5-.86,0,0-.12,0-.07-.09A.35.35,0,0,1,31.46,6c.38.13.38.65.35,1l.37-.48a.78.78,0,0,1-.92-.61l-.48.63.72,0c.64,0,.64-1,0-1Z" transform="translate(-1.53 -1.75)"/><path d="M45.34,21.26a1.12,1.12,0,0,0,1.5-1.13,1.13,1.13,0,0,0-1.64-.8,1,1,0,0,0,.09,1.73.82.82,0,0,0,.81-1.34c-.46-.45-1.17.26-.7.7a.46.46,0,0,1,.33-.23.21.21,0,0,1,.12.07c-.16,0,0,.12-.25,0-.59-.24-.85.72-.26,1Z" transform="translate(-1.53 -1.75)"/><path d="M44.91,24a1,1,0,0,0,1.7.7,1,1,0,0,0-1.08-1.53c-.61.2-.35,1.17.27,1,.07,0,.11-.19.11-.13a.5.5,0,0,0-1,0Z" transform="translate(-1.53 -1.75)"/><path d="M15.51,56.84a1,1,0,0,0,1.4-.43.92.92,0,0,0-.62-1.27c-1.35-.38-1.72,1.7-.4,2,.63.11.9-.85.27-1,0,0-.21,0-.17,0s.12-.07,0-.13c-.55-.33-1.05.54-.5.87Z" transform="translate(-1.53 -1.75)"/><path d="M22.64,55.38a1,1,0,0,0-1.54.31.9.9,0,0,0,.79,1.3A1,1,0,0,0,23,55.88,1.12,1.12,0,0,0,21.52,55c-.6.22-.34,1.19.26,1,.1,0,.25,0,.22,0s0,.11,0,.07.15.18,0,0c.49.41,1.2-.3.71-.71Z" transform="translate(-1.53 -1.75)"/><path d="M43.9,57.88A.75.75,0,0,0,43.62,59a.52.52,0,0,0,.57.23.85.85,0,1,0-.86-1.36c-.4.49.3,1.21.71.71l-.12-.31.57.23-.09.28a.5.5,0,0,0-.5-.86Z" transform="translate(-1.53 -1.75)"/><path d="M45.81,56.69c1,.08,1.73-1.34.69-1.91a.9.9,0,0,0-1,1.44.5.5,0,0,0,.7-.7.29.29,0,0,1-.35.17c-.64,0-.64,1,0,1Z" transform="translate(-1.53 -1.75)"/><path d="M44.82,62.24a9.3,9.3,0,0,0,6.13-5c.28-.57-.58-1.08-.86-.5a8.43,8.43,0,0,1-5.53,4.52.5.5,0,0,0,.26,1Z" transform="translate(-1.53 -1.75)"/><path d="M23.16,10.05c3.64-.39,7.33,1.6,10.76-.37a.5.5,0,0,0-.5-.86c-3.18,1.82-6.86-.13-10.26.23-.64.07-.64,1.07,0,1Z" transform="translate(-1.53 -1.75)"/><path d="M48.72,17.12a27.63,27.63,0,0,1,1.17,4.55c.26,1.59.82,4.5-.13,5.95-.36.54.51,1,.86.5.93-1.41.61-3.42.45-5a26.59,26.59,0,0,0-1.39-6.24c-.21-.61-1.17-.35-1,.26Z" transform="translate(-1.53 -1.75)"/></svg>