<svg id="Layer_1" data-name="Layer 1" xmlns="http://www.w3.org/2000/svg" viewBox="0 0 98.21 96.49"><title>icon02</title><path d="M49.26,32.06c1.91-2.54,3.71-4.57,7.16-4a16.55,16.55,0,0,1,5.88,2.61c1.62,1.06,3.12-1.53,1.52-2.6C61.18,26.38,57,24.3,53.73,24.68s-5.32,3.55-7.06,5.86c-1.16,1.55,1.44,3,2.59,1.52Z" transform="translate(1.19 0.53)"/><path d="M61.62,24.92c2.28-3.09,5.49-4.23,9.05-2.71,2.06.88,3.87,2,6.12,2.43,1.88.37,2.69-2.53.79-2.89-3.83-.75-6.9-3.7-11-3.25-3.21.35-5.71,2.4-7.56,4.91-1.14,1.55,1.46,3.05,2.59,1.51Z" transform="translate(1.19 0.53)"/><path d="M79.23,45.05a.61.61,0,0,1-.07-.24v.29a3.32,3.32,0,0,0,.06.83,2.32,2.32,0,0,0,1,1.45,3.62,3.62,0,0,0,2.41.48,2.08,2.08,0,0,0,1.9-2.63,2.68,2.68,0,0,0-2.4-1.84,1.54,1.54,0,0,0-1.84,1,1.51,1.51,0,0,0,1,1.84,4,4,0,0,1,.6.11c-.13-.07-.11-.06,0,0a.7.7,0,0,1-.33-.39c-.11-.57.17-1,.84-1.15H81.9c-.18,0-.18,0,0,0-.17-.06-.17,0,0,0-.22-.14-.16-.06.18.23a.48.48,0,0,1,.06.24,2.81,2.81,0,0,1,0-.29,2.93,2.93,0,0,0-.34-1.56,1.5,1.5,0,1,0-2.59,1.51Z" transform="translate(1.19 0.53)"/><path d="M88.06,38.86a1.91,1.91,0,0,0,1,1.6,1.86,1.86,0,0,0,2.13-.28,2.05,2.05,0,0,0-.71-3.34,2.42,2.42,0,0,0-3.1.91,2,2,0,0,0,0,1.92,2,2,0,0,0,1.65,1,1.5,1.5,0,0,0,1.5-1.5,1.55,1.55,0,0,0-1.5-1.5h-.1l.75.21a1,1,0,0,1,.3,1.35.68.68,0,0,1-.59.4c-.18,0-.18,0,0,0-.68-.28-.72-.85-.11-1.74l.75-.2.86.53.21.76,0-.1a1.5,1.5,0,0,0-3,0Z" transform="translate(1.19 0.53)"/><path d="M55.33,35.33a1.5,1.5,0,0,0,0-3,1.5,1.5,0,0,0,0,3Z" transform="translate(1.19 0.53)"/><path d="M70.5,28.17a1.5,1.5,0,0,0,0-3,1.5,1.5,0,0,0,0,3Z" transform="translate(1.19 0.53)"/><path d="M45.24,44.9a10.19,10.19,0,0,0,8.11,3.72c4.38-.06,9.08-4.07,12.88-1.37A46,46,0,0,0,77.1,53.43c2.85,1,4.79,0,7.47-1.27,5.28-2.52,12.79-7.55,11.82-14.52-.4-2.83-2.9-4.36-5-6a78.94,78.94,0,0,0-12.59-7.82c-1.72-.87-3.24,1.72-1.52,2.59a81.06,81.06,0,0,1,7.86,4.46c2.62,1.71,7.83,4.21,8.28,7.72C94.16,44.44,82.71,52,77.8,50.46S69.29,44,64.55,42.78a6.38,6.38,0,0,0-4.26.61c-4.52,1.77-9,3.9-12.93-.61-1.27-1.46-3.38.67-2.12,2.12Z" transform="translate(1.19 0.53)"/><path d="M85.66,51.09C87.1,56.5,86,62,84,67.16c-2.5,6.52-6.42,10-13,12-3.31,1-6.85,2-9.53,4.31a38.39,38.39,0,0,0-2.75,3.32c-1.9,2-4.11,2.15-6.15,3.7-1.22.92-.59,3.39,1.16,2.74L60,90.93l-1.85-1a43.25,43.25,0,0,1,1.35,5c.39,1.89,3.28,1.09,2.89-.79a42.83,42.83,0,0,0-1.34-5,1.52,1.52,0,0,0-1.85-1l-6.29,2.35L54,93.13c1.71-1.3,4-1.35,5.62-2.75C61.5,88.8,62.3,86.47,64.4,85c4.89-3.33,11.31-3.13,16-7,7.3-6.07,10.57-18.78,8.18-27.74a1.5,1.5,0,0,0-2.89.8Z" transform="translate(1.19 0.53)"/><path d="M76.17,26.33a1.5,1.5,0,0,0,0-3,1.5,1.5,0,0,0,0,3Z" transform="translate(1.19 0.53)"/><path d="M76.5,26.33a1.5,1.5,0,0,0,0-3,1.5,1.5,0,0,0,0,3Z" transform="translate(1.19 0.53)"/><path d="M54.05,48.57a12,12,0,0,0,3.72,6.82,1.52,1.52,0,0,0,2.51-.67,47.14,47.14,0,0,1,2.31-5.9H60A29.37,29.37,0,0,0,64.62,55a1.51,1.51,0,0,0,2.12,0L70.9,50.3H68.78c2.22,1.77,3.12,4.28,4.92,6.24.51.54.78,1.21,1.62,1.42,2.43.61,4.86-3,6.06-4.4l-1.82.24,5.67,3.31a1.52,1.52,0,0,0,2-.54c1.64-2.63,3.93-5.33,4.39-8.49l-2.51.67a11,11,0,0,0,4.25,3.3,1.47,1.47,0,0,0,1.45-.38c2.65-2.67,2.46-7.2,1.55-10.56a1.5,1.5,0,0,0-2.89.8c.68,2.54,1.54,8.87-2.23,4.72a1.51,1.51,0,0,0-2.51.66c-.42,2.82-2.62,5.4-4.09,7.77l2-.54-5.66-3.31a1.51,1.51,0,0,0-1.82.23c-.56.67-1.42,2.12-2.24,2.48-1.59.7-1,.34-2-1.36a17.52,17.52,0,0,0-4.08-4.38,1.53,1.53,0,0,0-2.12,0l-4.16,4.71h2.12a26.34,26.34,0,0,1-4.15-5.59,1.51,1.51,0,0,0-2.59,0,52.44,52.44,0,0,0-2.61,6.63l2.5-.67a9.37,9.37,0,0,1-3-5.49c-.36-1.9-3.25-1.09-2.89.8Z" transform="translate(1.19 0.53)"/><path d="M45.77,43.52c-8.19,2.63-3.63,15.76,1,19.69,5.65,4.84,8,12.48,3.48,19-4.79,6.94-13.92,6.69-21.45,6.45-6.71-.22-14.93-1.31-19.22-7.14-2.49-3.39-3.33-9.24-2.22-13.38.95-3.52,3.7-6.25,5.18-9.52,1.74-3.85,1.78-7.63-.84-11.06a25.14,25.14,0,0,0-4.46-4.1c-2.43-2-4.5-3.24-3.89-7.26.3-2,2.91-7,5-7l-1.45-1.9c-.71,4.86-.76,9.74,4.13,12.23,1.83.93,3.66.89,4.66,3.11.61,1.34.6,4.65.74,6.22.41,4.58.61,9.34-.49,13.85-1.31,5.33-4.67,9.8,0,14.46A15.58,15.58,0,0,0,30.32,81c5.11-1.51,4.94-8.33,4.73-12.66-.36-7.43-2.91-14.49-4-21.8-1.33-8.85.08-17.95,7.77-23.49,7.37-5.31,15-3.22,23.35-2.23,1.91.22,1.9-2.78,0-3-5.86-.7-11.55-2.35-17.42-.82a23.43,23.43,0,0,0-11.93,7.57c-7.57,9-5.28,20.86-2.88,31.35,1.27,5.59,6.13,22.12-3.48,22.5-5.78.23-10.73-4.19-9.24-10,.76-3,1.95-5.58,2.3-8.68.61-5.38.73-12.54-.91-17.78a6,6,0,0,0-2.87-3.63c-.81-.5-1.92-.58-2.7-1.09-3.6-2.35-3.8-5.06-3.21-9a1.53,1.53,0,0,0-1.45-1.89c-5-.2-8.79,7.92-8.3,12.34.82,7.31,12,8.14,10.58,16.43C10,59,6.47,62.11,5,65.76c-1.38,3.46-1.19,7.18-.62,10.8,1,6.24,5.1,10.38,10.87,12.74,6.41,2.63,14.05,2.75,20.88,2.37,6-.33,11.86-1.86,15.79-6.72a16.64,16.64,0,0,0,2.58-16.41,17.17,17.17,0,0,0-4.61-6.61c-2-1.86-3.9-3-4.75-5.88-.58-2-1.47-8.71,1.42-9.64,1.83-.58,1-3.48-.8-2.89Z" transform="translate(1.19 0.53)"/><path d="M8.1,19.19c-4.35-3-1.56-7.25,1.52-9.53,1.13-.83,2.43-1.41,3.55-2.27a11.41,11.41,0,0,0,4.37-6.07c.55-1.86-2.31-2.63-2.89-.8a28.06,28.06,0,0,0-1.21,12.27c.17,1.34,1.22,3.49,1,4.76C14,20.46,10,23,8.5,19.6c-.76-1.77-3.35-.24-2.59,1.51,1.82,4.16,7.32,4.27,10.45,1,1.66-1.73,1.28-4,.81-6.1a27.07,27.07,0,0,1,.37-14.72L14.65.52C12.9,6.39,5.14,6.49,3.17,12a8.9,8.9,0,0,0,3.41,9.77c1.6,1.09,3.11-1.51,1.52-2.59Z" transform="translate(1.19 0.53)"/><path d="M16.69,12c.58-.9,2.18-.67,3.13-.89a5,5,0,0,0,2.41-1.29L19.67,8.71a33,33,0,0,1,.5,7.55c-.23,1.85-.68,3.77-2.53,4.5-1.36.54-2.82.87-4.21,1.3-1.85.56-1.06,3.46.79,2.89,3-.91,7-1.48,8.31-4.79,1.34-3.49.57-7.86.14-11.45A1.53,1.53,0,0,0,20.1,7.65c-1,.89-2.62.55-3.84,1a4.08,4.08,0,0,0-2.16,1.78c-1,1.63,1.54,3.14,2.59,1.52Z" transform="translate(1.19 0.53)"/><path d="M6.84,7.39C5.7,5.5,3.23,3.19,1.1,5-1.5,7.25-1.32,14.39-1,17.43a9.85,9.85,0,0,0,15.49,7.25c1.59-1.07.09-3.67-1.52-2.59C9,24.72,3.59,23.49,2.21,18.6A16.56,16.56,0,0,1,2,13.34C2,12.51,2.4,5.85,4.25,8.9A1.5,1.5,0,0,0,6.84,7.39Z" transform="translate(1.19 0.53)"/></svg>